<?xml version="1.0" encoding="UTF-8" standalone="no"?>
<svg
   xmlns:dc="http://purl.org/dc/elements/1.1/"
   xmlns:cc="http://creativecommons.org/ns#"
   xmlns:rdf="http://www.w3.org/1999/02/22-rdf-syntax-ns#"
   xmlns:svg="http://www.w3.org/2000/svg"
   xmlns="http://www.w3.org/2000/svg"
   id="svg8"
   version="1.1"
   viewBox="0 0 23.78749 23.787493"
   height="0.93651545in"
   width="0.93651533in">
  <defs
     id="defs2" />
  <metadata
     id="metadata5">
    <rdf:RDF>
      <cc:Work
         rdf:about="">
        <dc:format>image/svg+xml</dc:format>
        <dc:type
           rdf:resource="http://purl.org/dc/dcmitype/StillImage" />
        <dc:title></dc:title>
      </cc:Work>
    </rdf:RDF>
  </metadata>
  <g
     id="layer1"
     transform="translate(-16.30319,-62.273548)">
    <path
       d="m 24.35479,62.908548 v 7.4166 h -7.4166 v 7.683773 h 7.4166 v 7.417119 h 7.68428 v -7.417119 h 7.41661 v -7.683773 h -7.41712 v -7.4166 z"
       style="fill:#de6364;fill-opacity:1;stroke:#de6364;stroke-width:1.27;stroke-linejoin:round;stroke-miterlimit:4;stroke-dasharray:none;stroke-opacity:1;paint-order:fill markers stroke"
       id="rect844-8" />
    <path
       d="m 26.205626,71.255123 a 2.1696085,1.766321 49.428336 0 0 -0.729568,0.181366 2.1696085,1.766321 49.428336 0 0 -0.42511,2.662041 2.1696085,1.766321 49.428336 0 0 0.156391,0.222587 2.1696085,1.766321 49.428336 0 0 0.01517,0.01895 l 2.96531,3.798286 2.888657,-3.685388 a 1.7663211,2.169609 40.571654 0 0 0.266547,-0.354741 1.7663211,2.169609 40.571654 0 0 -0.425548,-2.662058 1.7663211,2.169609 40.571654 0 0 -2.720527,0.992512 2.1696085,1.766321 49.428336 0 0 -1.990951,-1.173874 z"
       style="fill:#f7bdc6;fill-opacity:1;stroke:none;stroke-width:0.264583px;stroke-linecap:butt;stroke-linejoin:miter;stroke-opacity:1"
       id="path896-5" />
  </g>
</svg>
