<?xml version="1.0" encoding="UTF-8" standalone="no"?>
<svg
   xmlns:dc="http://purl.org/dc/elements/1.1/"
   xmlns:cc="http://creativecommons.org/ns#"
   xmlns:rdf="http://www.w3.org/1999/02/22-rdf-syntax-ns#"
   xmlns:svg="http://www.w3.org/2000/svg"
   xmlns="http://www.w3.org/2000/svg"
   id="svg8"
   version="1.1"
   viewBox="0 0 23.78749 23.787493"
   height="0.93651545in"
   width="0.93651533in">
  <defs
     id="defs2" />
  <metadata
     id="metadata5">
    <rdf:RDF>
      <cc:Work
         rdf:about="">
        <dc:format>image/svg+xml</dc:format>
        <dc:type
           rdf:resource="http://purl.org/dc/dcmitype/StillImage" />
        <dc:title></dc:title>
      </cc:Work>
    </rdf:RDF>
  </metadata>
  <g
     id="layer1"
     transform="translate(-16.30319,-62.273548)">
    <path
       d="m 26.205626,71.255123 a 2.1696085,1.766321 49.428336 0 0 -0.729568,0.181366 2.1696085,1.766321 49.428336 0 0 -0.42511,2.662041 2.1696085,1.766321 49.428336 0 0 0.156391,0.222587 2.1696085,1.766321 49.428336 0 0 0.01517,0.01895 l 2.96531,3.798286 2.888657,-3.685388 a 1.7663211,2.169609 40.571654 0 0 0.266547,-0.354741 1.7663211,2.169609 40.571654 0 0 -0.425548,-2.662058 1.7663211,2.169609 40.571654 0 0 -2.720527,0.992512 2.1696085,1.766321 49.428336 0 0 -1.990951,-1.173874 z"
       style="fill:#de6364;fill-opacity:1;stroke:none;stroke-width:0.264583px;stroke-linecap:butt;stroke-linejoin:miter;stroke-opacity:1"
       id="path896-5" />
    <path
       id="path896-2-5"
       style="fill:#f7bdc6;fill-opacity:1;stroke:none;stroke-width:0.264583px;stroke-linecap:butt;stroke-linejoin:miter;stroke-opacity:1"
       d="m 37.542827,62.629848 a 1.3620958,1.6695153 1.512055 0 0 -0.499298,-0.303744 1.3620958,1.6695153 1.512055 0 0 -1.66909,1.20117 1.3620958,1.6695153 1.512055 0 0 -0.03396,0.206067 1.3620958,1.6695153 1.512055 0 0 -0.0022,0.01855 l -0.415717,3.679653 3.576603,-0.397044 a 1.3620958,1.6695156 88.487931 0 0 0.337933,-0.04455 1.3620958,1.6695156 88.487931 0 0 1.200937,-1.669341 1.3620958,1.6695156 88.487931 0 0 -2.032322,-0.962177 1.3620958,1.6695153 1.512055 0 0 -0.462879,-1.728571 z" />
    <path
       d="m 24.35479,62.908548 v 7.4166 h -7.4166 v 7.683773 h 7.4166 v 7.417119 h 7.68428 v -7.417119 h 7.41661 v -7.683773 h -7.41712 v -7.4166 z"
       style="fill:none;fill-opacity:1;stroke:#de6364;stroke-width:1.27;stroke-linejoin:round;stroke-miterlimit:4;stroke-dasharray:none;stroke-opacity:1;paint-order:fill markers stroke"
       id="rect844-8" />
    <path
       d="m 39.73438,83.513187 a 1.6695153,1.3620958 1.512055 0 0 0.303744,-0.499298 1.6695153,1.3620958 1.512055 0 0 -1.20117,-1.66909 1.6695153,1.3620958 1.512055 0 0 -0.206067,-0.03396 1.6695153,1.3620958 1.512055 0 0 -0.01855,-0.0022 l -3.679653,-0.415717 0.397044,3.576603 a 1.6695156,1.3620958 88.487931 0 0 0.04455,0.337933 1.6695156,1.3620958 88.487931 0 0 1.669341,1.200937 1.6695156,1.3620958 88.487931 0 0 0.962177,-2.032322 1.6695153,1.3620958 1.512055 0 0 1.728571,-0.462879 z"
       style="fill:#f7bdc6;fill-opacity:1;stroke:none;stroke-width:0.264583px;stroke-linecap:butt;stroke-linejoin:miter;stroke-opacity:1"
       id="path896-2-5-9" />
    <path
       d="m 16.65949,64.821401 a 1.6695153,1.3620958 1.512055 0 0 -0.303744,0.499298 1.6695153,1.3620958 1.512055 0 0 1.20117,1.66909 1.6695153,1.3620958 1.512055 0 0 0.206067,0.03396 1.6695153,1.3620958 1.512055 0 0 0.01855,0.0022 l 3.679653,0.415717 -0.397044,-3.576603 a 1.6695156,1.3620958 88.487931 0 0 -0.04455,-0.337933 1.6695156,1.3620958 88.487931 0 0 -1.669341,-1.200937 1.6695156,1.3620958 88.487931 0 0 -0.962177,2.032322 1.6695153,1.3620958 1.512055 0 0 -1.728571,0.462879 z"
       style="fill:#f7bdc6;fill-opacity:1;stroke:none;stroke-width:0.264583px;stroke-linecap:butt;stroke-linejoin:miter;stroke-opacity:1"
       id="path896-2-5-1" />
    <path
       d="m 18.851043,85.70474 a 1.3620958,1.6695153 1.512055 0 0 0.499298,0.303744 1.3620958,1.6695153 1.512055 0 0 1.66909,-1.20117 1.3620958,1.6695153 1.512055 0 0 0.03396,-0.206067 1.3620958,1.6695153 1.512055 0 0 0.0022,-0.01855 l 0.415717,-3.679653 -3.576603,0.397044 a 1.3620958,1.6695156 88.487931 0 0 -0.337933,0.04455 1.3620958,1.6695156 88.487931 0 0 -1.200937,1.669341 1.3620958,1.6695156 88.487931 0 0 2.032322,0.962177 1.3620958,1.6695153 1.512055 0 0 0.462879,1.728571 z"
       style="fill:#f7bdc6;fill-opacity:1;stroke:none;stroke-width:0.264583px;stroke-linecap:butt;stroke-linejoin:miter;stroke-opacity:1"
       id="path896-2-5-4" />
  </g>
</svg>
